<?xml version="1.0" encoding="iso-8859-1"?>
<!-- Generator: Adobe Illustrator 16.0.0, SVG Export Plug-In . SVG Version: 6.00 Build 0)  -->
<!DOCTYPE svg PUBLIC "-//W3C//DTD SVG 1.1//EN" "http://www.w3.org/Graphics/SVG/1.1/DTD/svg11.dtd">
<svg version="1.1" id="Capa_1" xmlns="http://www.w3.org/2000/svg" xmlns:xlink="http://www.w3.org/1999/xlink" x="0px" y="0px"
	 width="52.234px" height="52.234px" viewBox="0 0 52.234 52.234" style="enable-background:new 0 0 52.234 52.234;"
	 xml:space="preserve">
<g>
	<g>
		<path d="M45.99,13.772l-6.241,2.882c0,0-1.07,0-2.404,0c-0.239,0-0.465,0.134-0.685,0.327v-3.52c0-3.096-2.511-5.604-5.604-5.604
			H5.602C2.507,7.857,0,10.366,0,13.461v20.336c0,3.096,2.507,5.604,5.602,5.604h0.752h9.66h11.141v-2.983
			c0-1.467,1.193-2.66,2.659-2.66h1.046v-1.044c0-1.467,1.194-2.661,2.66-2.661h3.155c0.683,0,1.299,0.267,1.771,0.689h1.303
			c0,0,2.792,1.241,6.241,2.772c3.453,1.529,6.244-2.914,6.244-9.924C52.234,16.572,49.444,12.17,45.99,13.772z"/>
		<path d="M36.683,31.615h-3.154c-0.606,0-1.099,0.492-1.099,1.099v2.606h-2.607c-0.606,0-1.098,0.492-1.098,1.098v3.156
			c0,0.606,0.491,1.098,1.098,1.098h2.607v2.607c0,0.605,0.492,1.098,1.099,1.098h3.154c0.606,0,1.098-0.492,1.098-1.098v-2.607
			h2.608c0.606,0,1.097-0.491,1.097-1.098v-3.156c0-0.605-0.49-1.098-1.097-1.098h-2.608v-2.606
			C37.781,32.105,37.29,31.615,36.683,31.615z"/>
	</g>
</g>
<g>
</g>
<g>
</g>
<g>
</g>
<g>
</g>
<g>
</g>
<g>
</g>
<g>
</g>
<g>
</g>
<g>
</g>
<g>
</g>
<g>
</g>
<g>
</g>
<g>
</g>
<g>
</g>
<g>
</g>
</svg>
