<svg height="512pt" viewBox="0 0 512 512.04267" width="512pt" xmlns="http://www.w3.org/2000/svg"><path d="m229.347656 458.667969c-49.984375 0-90.667968-40.683594-90.667968-90.667969v-303.59375l-103.058594 23.59375c-25.472656 6.699219-40.746094 32.960938-34.007813 58.667969l88.363281 329.917969c5.867188 21.335937 25.472657 35.457031 46.507813 35.457031 3.945313 0 7.957031-.492188 11.925781-1.535157l215.039063-51.839843zm0 0" fill="#b0bec5"/><path d="m512.015625 58.667969v309.332031c0 32.425781-26.242187 58.667969-58.667969 58.667969h-224c-21.972656 0-41.171875-12.160157-51.199218-30.082031-4.695313-8.320313-7.46875-18.132813-7.46875-28.585938v-309.332031c0-32.429688 26.242187-58.667969 58.667968-58.667969h224c32.425782 0 58.667969 26.238281 58.667969 58.667969zm0 0" fill="#eceff1"/><path d="m320.015625 149.332031c0 23.566407-19.101563 42.667969-42.667969 42.667969-23.5625 0-42.667968-19.101562-42.667968-42.667969 0-23.5625 19.105468-42.664062 42.667968-42.664062 23.566406 0 42.667969 19.101562 42.667969 42.664062zm0 0" fill="#ffc107"/><path d="m512.015625 254.71875v113.28125c0 32.425781-26.242187 58.667969-58.667969 58.667969h-224c-21.972656 0-41.171875-12.160157-51.199218-30.082031l211.414062-211.414063c14.503906-14.503906 38.398438-14.503906 52.90625 0zm0 0" fill="#388e3c"/><path d="m449.292969 426.667969h-219.945313c-21.972656 0-41.171875-12.160157-51.199218-30.082031-4.695313-8.320313-7.46875-18.132813-7.46875-28.585938v-49.28125l58.882812-58.878906c14.503906-14.507813 38.398438-14.507813 52.90625 0zm0 0" fill="#4caf50"/></svg>