<svg id="Capa_1" enable-background="new 0 0 512 512" height="512" viewBox="0 0 512 512" width="512" xmlns="http://www.w3.org/2000/svg"><g><path d="m497 31h-482c-8.284 0-15 6.716-15 15v330c0 8.284 6.716 15 15 15h204.787l-64.394 64.394c-9.421 9.421-2.737 25.606 10.607 25.606h180c13.316 0 20.049-16.163 10.606-25.606l-64.393-64.394h204.787c8.284 0 15-6.716 15-15v-330c0-8.284-6.716-15-15-15zm-294.787 420 53.787-53.787 53.787 53.787zm279.787-90c-19.258 0-432.742 0-452 0v-300h452z"/><path d="m203.284 299.112 135-75c10.266-5.703 10.28-20.514 0-26.225l-135-75c-9.981-5.546-22.284 1.687-22.284 13.113v150c0 11.466 12.356 18.628 22.284 13.112zm7.716-137.619 89.113 49.507-89.113 49.507z"/></g></svg>